<?xml version="1.0" encoding="UTF-8" standalone="no"?>
<svg
   xmlns:dc="http://purl.org/dc/elements/1.1/"
   xmlns:cc="http://creativecommons.org/ns#"
   xmlns:rdf="http://www.w3.org/1999/02/22-rdf-syntax-ns#"
   xmlns:svg="http://www.w3.org/2000/svg"
   xmlns="http://www.w3.org/2000/svg"
   xmlns:sodipodi="http://sodipodi.sourceforge.net/DTD/sodipodi-0.dtd"
   xmlns:inkscape="http://www.inkscape.org/namespaces/inkscape"
   sodipodi:docname="HoGS_black.svg"
   inkscape:version="1.0beta2 (2b71d25, 2019-12-03)"
   version="1.1"
   id="svg2"
   viewBox="0 0 752.01037 752.01032"
   height="601.60828pt"
   width="601.60828pt">
  <defs
     id="defs4" />
  <sodipodi:namedview
     inkscape:document-rotation="0"
     inkscape:window-maximized="1"
     inkscape:window-y="23"
     inkscape:window-x="0"
     inkscape:window-height="755"
     inkscape:window-width="1280"
     inkscape:object-nodes="true"
     inkscape:object-paths="false"
     inkscape:snap-bbox-edge-midpoints="false"
     inkscape:bbox-nodes="true"
     inkscape:snap-others="true"
     inkscape:bbox-paths="true"
     inkscape:snap-page="false"
     units="pt"
     inkscape:snap-center="false"
     inkscape:snap-bbox-midpoints="false"
     inkscape:snap-bbox="true"
     inkscape:showpageshadow="false"
     fit-margin-bottom="0"
     fit-margin-right="0"
     fit-margin-left="0"
     fit-margin-top="0"
     showgrid="false"
     inkscape:current-layer="layer2"
     inkscape:document-units="px"
     inkscape:cy="376.00517"
     inkscape:cx="376.00517"
     inkscape:zoom="0.75530876"
     inkscape:pageshadow="2"
     inkscape:pageopacity="1"
     borderopacity="1.0"
     bordercolor="#666666"
     pagecolor="#ffffff"
     id="base" />
  <metadata
     id="metadata7">
    <rdf:RDF>
      <cc:Work
         rdf:about="">
        <dc:format>image/svg+xml</dc:format>
        <dc:type
           rdf:resource="http://purl.org/dc/dcmitype/StillImage" />
        <dc:title></dc:title>
      </cc:Work>
    </rdf:RDF>
  </metadata>
  <g
     transform="translate(-3.0000131,10.828408)"
     style="display:inline;opacity:1"
     inkscape:label="vectorisation"
     id="layer2"
     inkscape:groupmode="layer">
    <ellipse
       cx="379.98428"
       cy="364.78342"
       rx="50.550976"
       ry="28.412186"
       transform="matrix(1.0524568,0,0,1.052852,-20.911856,-18.886181)"
       id="path4237"
       style="opacity:1;fill:#e20303;fill-opacity:1;fill-rule:nonzero;stroke:none;stroke-width:0.94997942;stroke-linecap:square;stroke-linejoin:miter;stroke-miterlimit:4;stroke-dasharray:none;stroke-dashoffset:0;stroke-opacity:1" />
    <g
       style="fill:#0f1215;fill-opacity:1;stroke:none"
       id="g4251">
      <path
         style="fill:#0f1215;fill-opacity:1;fill-rule:evenodd;stroke:none"
         d="m 439.82042,410.38773 c 0,0 -51.28946,11.26752 -110.57147,-11.31611 -59.28202,-22.58363 -133.38037,-87.67883 -117.11692,-140.71184 16.26346,-53.03301 74.55745,-105.86186 190.40594,-105.86186 115.84849,0 138.37061,5.42289 173.45777,44.46059 C 611.08291,235.9962 600.5,313 600.5,313 c 0,0 42.96717,-53.22601 -1.93411,-129.23999 -44.90128,-76.01398 -181.43739,-62.44995 -189.15106,-62.44995 -7.71367,0 -164.04878,-5.07875 -217.08179,96.74463 -53.033,101.82338 45.15326,168.1956 68.58936,181.72644 23.4361,13.53084 110.66221,59.39697 178.89802,10.6066 z"
         id="path4241"
         inkscape:connector-curvature="0"
         sodipodi:nodetypes="czszzcszszc"
         inkscape:transform-center-x="-18.721108"
         inkscape:transform-center-y="-88.549368" />
      <path
         sodipodi:nodetypes="ssssccsssssscsssssscssssssscszs"
         inkscape:connector-curvature="0"
         id="path4286"
         d="M 242.01172,213.25977 C 43.088123,252.33404 14.246094,366.35696 14.246094,399.78125 c 0,33.31907 12.415405,58.76536 32.675781,77.78125 20.260376,19.01589 48.211815,31.7104 79.500005,40.43164 62.57637,17.44248 138.74234,19.01051 194.46484,21.54883 0.0605,0.003 0.12109,0.003 0.18164,0.002 183.68967,-3.9866 291.13081,-33.93789 324.97266,-47.93359 16.77436,-6.93724 40.84367,-18.78186 60.90039,-35.30078 20.05671,-16.51893 36.2832,-37.91755 36.2832,-63.81055 0,-26.11729 -19.67699,-46.47427 -48.4375,-60.02734 C 666.0266,318.91959 627.83625,311.77539 589,311.77539 c -38.89524,0 -64.99081,8.47729 -81.38867,17.06055 -16.39787,8.58326 -24.89849,21.52874 -24.89849,21.52874 -1.66961,2.19373 86.00153,-31.44975 151.83208,-6.81195 22.26929,8.33453 38.76243,17.71322 49.56641,27.47852 10.80397,9.7653 15.8752,19.74627 15.96875,29.70508 0.0935,9.9588 -4.81615,20.28779 -15.22852,30.67187 -10.41236,10.38409 -26.27482,20.67648 -47.45508,30.23438 -94.30526,42.55662 -252.09177,45.01562 -311.41992,45.01562 l -0.002,0 c -47.16319,0.0437 -117.91757,-0.76143 -176.5625,-14.66211 -29.32247,-6.95034 -55.577197,-17.19001 -74.300782,-31.98047 -18.723585,-14.79045 -30.001953,-33.88992 -30.001953,-59.5332 0,-25.61721 11.772628,-48.03503 30.71875,-67.61914 18.946122,-19.58411 45.045745,-36.18635 73.156255,-49.74609 56.221,-27.11949 120.53296,-42.09325 151.23046,-45.72852 61.96328,-7.33785 143.33669,-7.38672 225.83594,-7.38672 81.65193,0 153.2163,30.13643 153.2163,30.13643 -4.71257,-13.18631 -40.53049,-62.95919 -136.14208,-65.31416 -35.89559,-0.88414 -66.23662,-1.4346 -120.10318,-1.46381 -53.86656,-0.0292 -104.04855,4.78192 -181.01005,19.89936 z"
         style="fill:#0f1215;fill-opacity:1;fill-rule:evenodd;stroke:none"
         transform="translate(0.29376321,-5.5402195)" />
      <path
         transform="matrix(-1,0,0,-1,758.42783,729.80039)"
         inkscape:transform-center-y="88.549368"
         inkscape:transform-center-x="18.721108"
         sodipodi:nodetypes="czszzcszszc"
         inkscape:connector-curvature="0"
         id="path4276"
         d="m 439.82042,410.38773 c 0,0 -51.28946,11.26752 -110.57147,-11.31611 -59.28202,-22.58363 -133.38037,-87.67883 -117.11692,-140.71184 16.26346,-53.03301 74.55745,-105.86186 190.40594,-105.86186 115.84849,0 138.37061,5.42289 173.45777,44.46059 C 611.08291,235.9962 600.5,313 600.5,313 c 0,0 42.96717,-53.22601 -1.93411,-129.23999 -44.90128,-76.01398 -181.43739,-62.44995 -189.15106,-62.44995 -7.71367,0 -164.04878,-5.07875 -217.08179,96.74463 -53.033,101.82338 45.15326,168.1956 68.58936,181.72644 23.4361,13.53084 110.66221,59.39697 178.89802,10.6066 z"
         style="fill:#0f1215;fill-opacity:1;fill-rule:evenodd;stroke:none" />
      <g
         style="fill:#0f1215;fill-opacity:1"
         transform="matrix(0.93969262,0.34202014,-0.34202014,0.93969262,154.71888,-115.47816)"
         id="g4305">
        <path
           id="path4301"
           transform="matrix(1,0,0,-1,3.0000131,765.86688)"
           d="m 248.98047,548.9082 c 3.01596,87.22904 74.76367,205.66016 74.76367,205.66016 0,0 -92.66997,-51.40485 -103.99805,-222.87109 -3.5564,-53.8311 -5.40429,-95.53246 -5.40429,-143.34961 0,-47.81715 1.84789,-89.51851 5.40429,-143.34961 C 231.07417,73.531809 323.74414,22.126959 323.74414,22.126959 c 0,0 -71.74771,118.431121 -74.76367,205.660161 -1.35552,39.20468 -5.54297,107.00848 -5.54297,160.56054 0,53.55206 4.18745,121.35586 5.54297,160.56054 z"
           style="fill-opacity:1;fill-rule:evenodd;fill:#0f1215"
           inkscape:connector-curvature="0"
           sodipodi:nodetypes="scsascsas" />
        <path
           sodipodi:nodetypes="scsascsas"
           inkscape:connector-curvature="0"
           style="fill-opacity:1;fill-rule:evenodd;fill:#0f1215"
           d="m 248.98047,548.9082 c 3.01596,87.22904 74.76367,205.66016 74.76367,205.66016 0,0 -92.66997,-51.40485 -103.99805,-222.87109 -3.5564,-53.8311 -5.40429,-95.53246 -5.40429,-143.34961 0,-47.81715 1.84789,-89.51851 5.40429,-143.34961 C 231.07417,73.531809 323.74414,22.126959 323.74414,22.126959 c 0,0 -71.74771,118.431121 -74.76367,205.660161 -1.35552,39.20468 -5.54297,107.00848 -5.54297,160.56054 0,53.55206 4.18745,121.35586 5.54297,160.56054 z"
           transform="matrix(-1,0,0,-1,747.3077,760.74336)"
           id="path4303" />
      </g>
    </g>
  </g>
</svg>
